# xmcd
#
# Track frame offsets: 
#        150
#        19125
#        30825
#        45900
#        63900
#        88275
#        110550
#        129900
#        142875
#        162375
#        181125
#        197625
#
# Disc length: 2799 seconds
#
# Revision: 0
# Processed by: cddbd v1.5.2PL0 Copyright (c) Steve Scherf et al.
# Submitted via: ExactAudioCopy v1.3
#
DISCID=920aed0c
DTITLE=Graeme Mearns - The Red Room Sessions Volume 1
DYEAR=1900
DGENRE=Acoustic
TTITLE0=Under My Skin
TTITLE1=Everybody Loves My Baby
TTITLE2=Ever Fallen in Love (with Someone You Shouldn't've)
TTITLE3=Night and Day
TTITLE4=Pale Blue Eyes
TTITLE5=Mojo Working
TTITLE6=Moon River
TTITLE7=Almost Blue
TTITLE8=I See a Darkness
TTITLE9=That Ol' Deveil Called Love
TTITLE10=What'll I Do?
TTITLE11=All Honey but No Moon
EXTD=
EXTT0=
EXTT1=
EXTT2=
EXTT3=
EXTT4=
EXTT5=
EXTT6=
EXTT7=
EXTT8=
EXTT9=
EXTT10=
EXTT11=
PLAYORDER=
